<svg width="11" height="10" viewBox="0 0 11 10" fill="none" xmlns="http://www.w3.org/2000/svg">
<path d="M10.7829 0.516667C10.6983 0.313042 10.5365 0.151229 10.3329 0.0666666C10.2327 0.0239658 10.1251 0.00131666 10.0162 0H1.68289C1.46188 0 1.24992 0.0877975 1.09364 0.244078C0.937356 0.400358 0.849559 0.61232 0.849559 0.833333C0.849559 1.05435 0.937356 1.26631 1.09364 1.42259C1.24992 1.57887 1.46188 1.66667 1.68289 1.66667H8.00789L1.09123 8.575C1.01312 8.65247 0.951123 8.74464 0.908816 8.84619C0.866509 8.94774 0.844727 9.05666 0.844727 9.16667C0.844727 9.27668 0.866509 9.3856 0.908816 9.48715C0.951123 9.5887 1.01312 9.68086 1.09123 9.75833C1.16869 9.83644 1.26086 9.89844 1.36241 9.94074C1.46396 9.98305 1.57288 10.0048 1.68289 10.0048C1.7929 10.0048 1.90182 9.98305 2.00337 9.94074C2.10492 9.89844 2.19709 9.83644 2.27456 9.75833L9.18289 2.84167V9.16667C9.18289 9.38768 9.27069 9.59964 9.42697 9.75592C9.58325 9.9122 9.79521 10 10.0162 10C10.2372 10 10.4492 9.9122 10.6055 9.75592C10.7618 9.59964 10.8496 9.38768 10.8496 9.16667V0.833333C10.8482 0.724436 10.8256 0.616852 10.7829 0.516667Z" fill="white"/>
</svg>
