<svg width="18" height="16" viewBox="0 0 18 16" fill="none" xmlns="http://www.w3.org/2000/svg">
<path d="M17.183 6.05833C17.1303 5.90591 17.0346 5.77202 16.9074 5.67292C16.7802 5.57381 16.627 5.51375 16.4663 5.5L11.7246 4.80833L9.59963 0.499999C9.53139 0.359106 9.42485 0.240284 9.29221 0.157143C9.15956 0.074003 9.00618 0.0299072 8.84963 0.0299072C8.69308 0.0299072 8.5397 0.074003 8.40706 0.157143C8.27441 0.240284 8.16787 0.359106 8.09963 0.499999L5.97463 4.8L1.23296 5.5C1.07873 5.52192 0.933735 5.58663 0.814423 5.6868C0.695112 5.78696 0.606265 5.91856 0.557965 6.06667C0.513752 6.21139 0.509785 6.36543 0.546488 6.51224C0.583191 6.65906 0.659179 6.7931 0.766298 6.9L4.20796 10.2333L3.37463 14.9667C3.34488 15.1229 3.36046 15.2844 3.41952 15.432C3.47859 15.5797 3.57868 15.7074 3.70796 15.8C3.83398 15.8901 3.98261 15.9433 4.13717 15.9536C4.29173 15.9639 4.44611 15.9309 4.58297 15.8583L8.84963 13.6333L13.0996 15.8667C13.2166 15.9326 13.3487 15.9671 13.483 15.9667C13.6595 15.9673 13.8316 15.9119 13.9746 15.8083C14.1039 15.7157 14.204 15.588 14.2631 15.4404C14.3221 15.2927 14.3377 15.1312 14.308 14.975L13.4746 10.2417L16.9163 6.90833C17.0366 6.8064 17.1255 6.67242 17.1727 6.52196C17.22 6.37149 17.2235 6.21073 17.183 6.05833ZM12.058 9.39167C11.9602 9.48619 11.8871 9.6032 11.845 9.73248C11.8029 9.86175 11.793 9.99937 11.8163 10.1333L12.4163 13.625L9.28297 11.9583C9.1624 11.8941 9.02789 11.8606 8.8913 11.8606C8.7547 11.8606 8.6202 11.8941 8.49963 11.9583L5.3663 13.625L5.9663 10.1333C5.98958 9.99937 5.97973 9.86175 5.9376 9.73248C5.89548 9.6032 5.82236 9.48619 5.72463 9.39167L3.22463 6.89167L6.73297 6.38333C6.86796 6.36455 6.9963 6.31295 7.10671 6.23304C7.21713 6.15313 7.30626 6.04736 7.3663 5.925L8.84963 2.75L10.4163 5.93333C10.4763 6.0557 10.5655 6.16147 10.6759 6.24138C10.7863 6.32128 10.9146 6.37289 11.0496 6.39167L14.558 6.9L12.058 9.39167Z" fill="#FF9901"/>
</svg>
