<svg width="18" height="18" viewBox="0 0 18 18" fill="none" xmlns="http://www.w3.org/2000/svg">
<path d="M16.3497 2.33341H13.8497V1.50008C13.8497 1.27907 13.7619 1.06711 13.6056 0.910826C13.4493 0.754545 13.2374 0.666748 13.0164 0.666748H4.68302C4.46201 0.666748 4.25005 0.754545 4.09377 0.910826C3.93749 1.06711 3.84969 1.27907 3.84969 1.50008V2.33341H1.34969C1.12868 2.33341 0.916715 2.42121 0.760435 2.57749C0.604155 2.73377 0.516357 2.94573 0.516357 3.16675V5.66675C0.516357 6.5508 0.867547 7.39865 1.49267 8.02377C2.11779 8.64889 2.96564 9.00008 3.84969 9.00008H5.13302C5.8868 9.84104 6.90308 10.402 8.01636 10.5917V12.3334H7.18302C6.51998 12.3334 5.8841 12.5968 5.41526 13.0656C4.94642 13.5345 4.68302 14.1704 4.68302 14.8334V16.5001C4.68302 16.7211 4.77082 16.9331 4.9271 17.0893C5.08338 17.2456 5.29534 17.3334 5.51636 17.3334H12.183C12.404 17.3334 12.616 17.2456 12.7723 17.0893C12.9286 16.9331 13.0164 16.7211 13.0164 16.5001V14.8334C13.0164 14.1704 12.753 13.5345 12.2841 13.0656C11.8153 12.5968 11.1794 12.3334 10.5164 12.3334H9.68302V10.5917C10.7963 10.402 11.8126 9.84104 12.5664 9.00008H13.8497C14.7337 9.00008 15.5816 8.64889 16.2067 8.02377C16.8318 7.39865 17.183 6.5508 17.183 5.66675V3.16675C17.183 2.94573 17.0952 2.73377 16.9389 2.57749C16.7827 2.42121 16.5707 2.33341 16.3497 2.33341ZM3.84969 7.33342C3.40766 7.33342 2.98374 7.15782 2.67118 6.84526C2.35862 6.5327 2.18302 6.10878 2.18302 5.66675V4.00008H3.84969V5.66675C3.85152 6.23484 3.95016 6.79846 4.14136 7.33342H3.84969ZM10.5164 14.0001C10.7374 14.0001 10.9493 14.0879 11.1056 14.2442C11.2619 14.4004 11.3497 14.6124 11.3497 14.8334V15.6667H6.34969V14.8334C6.34969 14.6124 6.43749 14.4004 6.59377 14.2442C6.75005 14.0879 6.96201 14.0001 7.18302 14.0001H10.5164ZM12.183 5.66675C12.183 6.5508 11.8318 7.39865 11.2067 8.02377C10.5816 8.64889 9.73375 9.00008 8.84969 9.00008C7.96564 9.00008 7.11779 8.64889 6.49267 8.02377C5.86755 7.39865 5.51636 6.5508 5.51636 5.66675V2.33341H12.183V5.66675ZM15.5164 5.66675C15.5164 6.10878 15.3408 6.5327 15.0282 6.84526C14.7156 7.15782 14.2917 7.33342 13.8497 7.33342H13.558C13.7492 6.79846 13.8479 6.23484 13.8497 5.66675V4.00008H15.5164V5.66675Z" fill="url(#paint0_linear_2001_2767)"/>
<defs>
<linearGradient id="paint0_linear_2001_2767" x1="65.8503" y1="39.0001" x2="68.9202" y2="-1.27837" gradientUnits="userSpaceOnUse">
<stop stop-color="#0103FF"/>
<stop offset="1" stop-color="#01E4FF"/>
</linearGradient>
</defs>
</svg>
