<svg width="20" height="20" viewBox="0 0 20 20" fill="none" xmlns="http://www.w3.org/2000/svg">
<path d="M18.1829 14.1666H1.51619C1.29518 14.1666 1.08322 14.2544 0.926939 14.4107C0.770659 14.5669 0.682861 14.7789 0.682861 14.9999C0.682861 15.2209 0.770659 15.4329 0.926939 15.5892C1.08322 15.7455 1.29518 15.8333 1.51619 15.8333H18.1829C18.4039 15.8333 18.6158 15.7455 18.7721 15.5892C18.9284 15.4329 19.0162 15.2209 19.0162 14.9999C19.0162 14.7789 18.9284 14.5669 18.7721 14.4107C18.6158 14.2544 18.4039 14.1666 18.1829 14.1666ZM18.1829 17.4999H1.51619C1.29518 17.4999 1.08322 17.5877 0.926939 17.744C0.770659 17.9003 0.682861 18.1122 0.682861 18.3333C0.682861 18.5543 0.770659 18.7662 0.926939 18.9225C1.08322 19.0788 1.29518 19.1666 1.51619 19.1666H18.1829C18.4039 19.1666 18.6158 19.0788 18.7721 18.9225C18.9284 18.7662 19.0162 18.5543 19.0162 18.3333C19.0162 18.1122 18.9284 17.9003 18.7721 17.744C18.6158 17.5877 18.4039 17.4999 18.1829 17.4999ZM4.84953 5.83325C4.68471 5.83325 4.52359 5.88213 4.38655 5.97369C4.24951 6.06526 4.1427 6.19541 4.07963 6.34768C4.01656 6.49995 4.00005 6.66751 4.03221 6.82916C4.06436 6.99081 4.14373 7.1393 4.26027 7.25584C4.37682 7.37238 4.5253 7.45175 4.68695 7.48391C4.8486 7.51606 5.01616 7.49956 5.16843 7.43648C5.3207 7.37341 5.45085 7.2666 5.54242 7.12956C5.63399 6.99252 5.68286 6.8314 5.68286 6.66658C5.68286 6.44557 5.59506 6.23361 5.43878 6.07733C5.2825 5.92105 5.07054 5.83325 4.84953 5.83325ZM16.5162 0.833252H3.18286C2.51982 0.833252 1.88394 1.09664 1.41509 1.56548C0.946253 2.03433 0.682861 2.67021 0.682861 3.33325V9.99992C0.682861 10.663 0.946253 11.2988 1.41509 11.7677C1.88394 12.2365 2.51982 12.4999 3.18286 12.4999H16.5162C17.1792 12.4999 17.8151 12.2365 18.284 11.7677C18.7528 11.2988 19.0162 10.663 19.0162 9.99992V3.33325C19.0162 2.67021 18.7528 2.03433 18.284 1.56548C17.8151 1.09664 17.1792 0.833252 16.5162 0.833252ZM17.3495 9.99992C17.3495 10.2209 17.2617 10.4329 17.1054 10.5892C16.9492 10.7455 16.7372 10.8333 16.5162 10.8333H3.18286C2.96185 10.8333 2.74989 10.7455 2.59361 10.5892C2.43733 10.4329 2.34953 10.2209 2.34953 9.99992V3.33325C2.34953 3.11224 2.43733 2.90028 2.59361 2.744C2.74989 2.58772 2.96185 2.49992 3.18286 2.49992H16.5162C16.7372 2.49992 16.9492 2.58772 17.1054 2.744C17.2617 2.90028 17.3495 3.11224 17.3495 3.33325V9.99992ZM9.84953 4.16658C9.35507 4.16658 8.87172 4.31321 8.4606 4.58791C8.04948 4.86261 7.72905 5.25306 7.53983 5.70988C7.35061 6.16669 7.3011 6.66936 7.39756 7.15431C7.49403 7.63926 7.73213 8.08472 8.08176 8.43435C8.43139 8.78398 8.87685 9.02209 9.3618 9.11855C9.84675 9.21501 10.3494 9.1655 10.8062 8.97628C11.2631 8.78706 11.6535 8.46663 11.9282 8.05551C12.2029 7.64439 12.3495 7.16104 12.3495 6.66658C12.3495 6.00354 12.0861 5.36766 11.6173 4.89882C11.1485 4.42998 10.5126 4.16658 9.84953 4.16658ZM9.84953 7.49992C9.68471 7.49992 9.52359 7.45104 9.38655 7.35948C9.24951 7.26791 9.1427 7.13776 9.07963 6.98549C9.01655 6.83322 9.00005 6.66566 9.03221 6.50401C9.06436 6.34236 9.14373 6.19387 9.26027 6.07733C9.37682 5.96079 9.5253 5.88142 9.68695 5.84926C9.8486 5.81711 10.0162 5.83361 10.1684 5.89669C10.3207 5.95976 10.4509 6.06657 10.5424 6.20361C10.634 6.34065 10.6829 6.50177 10.6829 6.66658C10.6829 6.8876 10.5951 7.09956 10.4388 7.25584C10.2825 7.41212 10.0705 7.49992 9.84953 7.49992ZM14.8495 5.83325C14.6847 5.83325 14.5236 5.88213 14.3866 5.97369C14.2495 6.06526 14.1427 6.19541 14.0796 6.34768C14.0166 6.49995 14.0001 6.66751 14.0322 6.82916C14.0644 6.99081 14.1437 7.1393 14.2603 7.25584C14.3768 7.37238 14.5253 7.45175 14.687 7.48391C14.8486 7.51606 15.0162 7.49956 15.1684 7.43648C15.3207 7.37341 15.4509 7.2666 15.5424 7.12956C15.634 6.99252 15.6829 6.8314 15.6829 6.66658C15.6829 6.44557 15.5951 6.23361 15.4388 6.07733C15.2825 5.92105 15.0705 5.83325 14.8495 5.83325Z" fill="white"/>
</svg>
